HIERARCHY
ROOT root
{
	OFFSET	0	13.1	24.9
	CHANNELS 6  Xposition Yposition Zposition Xrotation Yrotation Zrotation
	JOINT spine_1
	{
		OFFSET	0	9.99999	0
		CHANNELS 3  Xrotation Yrotation Zrotation
		JOINT spine_2
		{
			OFFSET	0	112	-10
			CHANNELS 3  Xrotation Yrotation Zrotation
			JOINT spine_3
			{
				OFFSET	0	206.5	19.3
				CHANNELS 3  Xrotation Yrotation Zrotation
				JOINT spine_4
				{
					OFFSET	0	110.4	14.6
					CHANNELS 3  Xrotation Yrotation Zrotation
					JOINT neck_1
					{
						OFFSET	0	71.8	-50.3
						CHANNELS 3  Xrotation Yrotation Zrotation
						JOINT neck_2
						{
							OFFSET	0	86.2	-25.8
							CHANNELS 3  Xrotation Yrotation Zrotation
							JOINT head_ee
							{
								OFFSET	0	179.8	-8.7
								CHANNELS 3  Xrotation Yrotation Zrotation
								End Site
								{
									OFFSET	1	0	0
								}
							}
						}
					}
					JOINT left_clavicle
					{
						OFFSET	-43.2	22.4	-70.8
						CHANNELS 3  Xrotation Yrotation Zrotation
						JOINT left_shoulder
						{
							OFFSET	-93.9	-5.79999	48.7
							CHANNELS 3  Xrotation Yrotation Zrotation
							JOINT left_elbow
							{
								OFFSET	-291.4	-30.8	15.2
								CHANNELS 3  Xrotation Yrotation Zrotation
								JOINT left_lowarm_twist
								{
									OFFSET	-110.7	-3.89999	13.6
									CHANNELS 3  Xrotation Yrotation Zrotation
									JOINT left_hand
									{
										OFFSET	-110.7	-3.89999	13.6
										CHANNELS 3  Xrotation Yrotation Zrotation
										JOINT left_ee
										{
											OFFSET	-80.8	-5.10001	12.1
											CHANNELS 3  Xrotation Yrotation Zrotation
											End Site
											{
												OFFSET	1	0	0
											}
										}
									}
								}
							}
						}
					}
					JOINT right_clavicle
					{
						OFFSET	43.2	22.4	-70.8
						CHANNELS 3  Xrotation Yrotation Zrotation
						JOINT right_shoulder
						{
							OFFSET	93.9	-5.79999	48.7
							CHANNELS 3  Xrotation Yrotation Zrotation
							JOINT right_elbow
							{
								OFFSET	291.4	-30.8	15.2
								CHANNELS 3  Xrotation Yrotation Zrotation
								JOINT right_lowarm_twist
								{
									OFFSET	110.7	-3.89999	13.6
									CHANNELS 3  Xrotation Yrotation Zrotation
									JOINT right_hand
									{
										OFFSET	110.7	-3.89999	13.6
										CHANNELS 3  Xrotation Yrotation Zrotation
										JOINT right_ee
										{
											OFFSET	80.8	-5.10001	12.1
											CHANNELS 3  Xrotation Yrotation Zrotation
											End Site
											{
												OFFSET	1	0	0
											}
										}
									}
								}
							}
						}
					}
				}
			}
		}
	}
	JOINT left_hip
	{
		OFFSET	-82.8	-127.5	0.300001
		CHANNELS 3  Xrotation Yrotation Zrotation
		JOINT left_knee
		{
			OFFSET	-28.2	-396.7	2.2
			CHANNELS 3  Xrotation Yrotation Zrotation
			JOINT left_ankle
			{
				OFFSET	-11.7	-411.3	35.4
				CHANNELS 3  Xrotation Yrotation Zrotation
				JOINT left_toes
				{
					OFFSET	0	-60	-88.6
					CHANNELS 3  Xrotation Yrotation Zrotation
					JOINT left_foot_ee
					{
						OFFSET	-22.5	-16.5	-42.2
						CHANNELS 3  Xrotation Yrotation Zrotation
						End Site
						{
							OFFSET	1	0	0
						}
					}
				}
			}
		}
	}
	JOINT right_hip
	{
		OFFSET	82.8	-127.5	0.300001
		CHANNELS 3  Xrotation Yrotation Zrotation
		JOINT right_knee
		{
			OFFSET	28.2	-396.7	2.2
			CHANNELS 3  Xrotation Yrotation Zrotation
			JOINT right_ankle
			{
				OFFSET	11.7	-411.3	35.4
				CHANNELS 3  Xrotation Yrotation Zrotation
				JOINT right_toes
				{
					OFFSET	0	-60	-88.6
					CHANNELS 3  Xrotation Yrotation Zrotation
					JOINT right_foot_ee
					{
						OFFSET	22.5	-16.5	-42.2
						CHANNELS 3  Xrotation Yrotation Zrotation
						End Site
						{
							OFFSET	1	0	0
						}
					}
				}
			}
		}
	}
}
MOTION
Frames: 13
Frame Time: 0.02
3177.02 653.055 -1669.29 -5.57929600032 16.7040448449 -1.32769583449 -0.796966 0.416526 1.62571 -0.79555 0.312248 1.64891 -0.785322 -0.0642528 1.67698 -0.78919 0.201364 1.66609 5.55918 9.37542 -0.58155 5.91557 16.5257 -0.304121 -0.0 0.0 -0.0 0.234392 11.6171 1.76829 -7.07775 21.3946 77.1888 0.208385 -5.89379 0.0107273 18.2586 0.278019 -2.30595 2.51356 9.3203 20.5123 -0.0 0.0 -0.0 12.0138 25.7275 -23.443 -3.04297 14.619 -51.9297 1.2186 31.1164 -0.339292 13.4261 -0.276288 1.68891 1.80751 21.0252 -3.00943 0.0 0.0 0.0 36.9545 16.9219 -4.62287 -6.73616 0.218164 1.01019 0.846721 -3.04214 -0.126155 -7.05076 0.0 0.0 -0.0 0.0 -0.0 -17.3323 12.5688 10.7215 -5.05971 -0.175006 -0.756543 37.6937 -16.7758 4.74748 8.4745 -0.0 -0.0 0.0 0.0 0.0 
3156.87608164 654.45 -1683.95731322 -6.06664562582 16.9483063794 -2.06632760934 -0.443882 0.323881 1.91307 -0.441868 0.201515 1.92979 -0.433732 -0.223226 1.9274 -0.438906 0.0839144 1.93847 6.0377 8.85761 0.297295 6.3158 14.8056 0.660994 -0.0 0.0 -0.0 0.824986 9.06881 2.51394 -5.85021 22.7379 75.7791 0.19061 -5.39417 0.00897928 18.9539 0.273986 -2.39467 2.47295 10.5993 20.6657 -0.0 0.0 -0.0 12.0397 25.6574 -23.5101 -1.70685 12.0572 -52.748 1.2212 31.1705 -0.34064 11.3858 -0.259938 1.42882 2.14188 22.5224 -4.50719 0.0 0.0 0.0 36.2594 15.7198 -2.67893 -7.18523 0.228462 1.07833 -0.129495 0.111657 0.0191575 -6.18514 0.0 0.0 -0.0 0.0 -0.0 -17.9973 12.3449 12.0083 -3.73285 -0.135594 -0.55673 40.4391 -24.2802 5.1867 11.1898 -0.0 -0.0 0.0 0.0 0.0 
3140.27137976 659.347 -1707.08517052 -5.51228280984 15.3852917193 -1.98589309206 -0.418258 0.38702 1.98611 -0.416101 0.259881 2.0067 -0.405508 -0.181972 2.01526 -0.411149 0.138517 2.01871 5.60193 8.87523 -0.0824318 5.89475 15.2267 0.257088 -0.0 0.0 -0.0 1.54021 8.10506 3.68126 -5.67325 21.4218 74.2965 0.199523 -5.64478 0.00983646 19.526 0.26986 -2.46763 2.45317 11.0855 20.692 -0.0 0.0 -0.0 12.1996 24.9802 -23.9497 -4.08004 13.179 -52.9346 1.36735 34.1097 -0.41949 12.38 -0.269062 1.55549 1.89804 22.8369 -2.76059 0.0 0.0 0.0 35.2409 16.9567 -4.18669 -10.0318 0.281282 1.5119 -0.0267039 0.163255 0.00394906 -5.81289 0.0 0.0 -0.0 0.0 -0.0 -19.3646 12.6209 12.784 -3.6188 -0.13199 -0.539598 39.441 -24.2159 5.08929 11.4502 -0.0 -0.0 0.0 0.0 0.0 
3127.71934531 662.871 -1725.4741485 -6.11647587092 14.7804692479 -1.7400202045 -0.233527 0.20019 2.22701 -0.23077 0.0581102 2.23523 -0.227042 -0.421878 2.19585 -0.233764 -0.0698804 2.2349 4.57807 8.56273 1.09955 4.78484 13.7914 1.68963 -0.0 0.0 -0.0 1.42815 5.55624 3.2599 -2.78928 22.3281 73.246 0.232634 -6.57392 0.0133605 19.9561 0.266279 -2.52244 2.46455 11.9062 21.0405 -0.0 0.0 -0.0 12.4874 22.8562 -24.823 -2.97877 11.167 -54.3716 1.33564 33.4885 -0.401854 10.4676 -0.24956 1.312 2.2665 24.5794 -4.33339 0.0 0.0 0.0 34.0946 16.3571 -4.14782 -10.0018 0.280837 1.50732 -0.713371 0.623138 0.105552 -5.60773 0.0 0.0 -0.0 0.0 -0.0 -18.7661 12.399 12.9692 -5.55834 -0.188618 -0.831856 40.2222 -25.8138 5.21654 12.0301 -0.0 -0.0 0.0 0.0 0.0 
3086.40658073 678.389 -1774.13045168 -4.31755955798 10.3339423415 -1.28472648702 -0.766759 0.468109 2.14983 -0.764248 0.330395 2.17525 -0.749651 -0.162889 2.19415 -0.756322 0.185595 2.19235 3.34904 9.69347 1.76311 3.57877 15.3567 2.59383 -0.0 0.0 -0.0 2.42071 5.1832 5.04239 -0.584541 19.9154 68.5076 0.299648 -8.44333 0.0221188 20.4065 0.262087 -2.57982 2.62379 15.3463 23.2039 -0.0 0.0 -0.0 12.4548 21.4187 -24.8728 -9.36864 17.8462 -53.7524 1.46987 36.0573 -0.478426 15.1924 -0.282956 1.9144 1.5404 24.3389 0.267861 0.0 0.0 0.0 31.5943 20.0105 -7.51712 -16.8112 0.319973 2.55077 1.50288 -3.9523 -0.224275 -5.0264 0.0 0.0 -0.0 0.0 -0.0 -15.3564 10.1483 13.4042 -12.5052 -0.309642 -1.89033 34.2214 -24.4409 4.56338 10.3021 -0.0 -0.0 0.0 0.0 0.0 
3062.3259414 687.232 -1798.236151 -3.70810865314 9.44974512815 -0.914387964208 -0.799948 0.501412 2.24967 -0.797203 0.357281 2.277 -0.780715 -0.160602 2.29925 -0.788035 0.204438 2.29576 4.57787 10.13 1.97245 4.84294 15.7395 2.75338 -0.0 0.0 -0.0 2.6757 5.0653 5.50195 -0.273138 19.1219 67.2909 0.30506 -8.59358 0.0229205 21.7552 0.24684 -2.75141 2.54106 13.2647 22.0005 -0.0 0.0 -0.0 12.5634 23.2679 -24.9597 -12.8434 17.6226 -54.764 1.44923 35.6726 -0.466332 18.8043 -0.274944 2.37558 1.11642 23.3021 2.56031 0.0 0.0 0.0 30.782 20.2867 -8.86156 -21.8918 0.268366 3.32835 1.4986 -2.96254 -0.222832 -5.59736 0.0 0.0 -0.0 0.0 -0.0 -11.6122 10.7301 13.5801 -20.2715 -0.292312 -3.08088 31.7666 -26.6867 4.35442 15.0356 -0.0 -0.0 0.0 0.0 0.0 
3061.53359986 687.232 -1797.52700058 -3.71198307796 9.80204303265 -0.891217663679 -0.799948 0.501412 2.24967 -0.797203 0.357281 2.277 -0.780715 -0.160602 2.29925 -0.788035 0.204438 2.29576 4.57787 10.13 1.97245 4.84294 15.7395 2.75338 -0.0 0.0 -0.0 2.6757 5.0653 5.50195 -0.273138 19.1219 67.2909 0.30506 -8.59358 0.0229205 21.7552 0.24684 -2.75141 2.54106 13.2647 22.0005 -0.0 0.0 -0.0 12.5634 23.2679 -24.9597 -12.8434 17.6226 -54.764 1.44923 35.6726 -0.466332 18.8043 -0.274944 2.37558 1.11642 23.3021 2.56031 0.0 0.0 0.0 30.782 20.2867 -8.86156 -21.8918 0.268366 3.32835 1.4986 -2.96254 -0.222832 -5.59736 0.0 0.0 -0.0 0.0 -0.0 -11.6122 10.7301 13.5801 -20.2715 -0.292312 -3.08088 31.7666 -26.6867 4.35442 15.0356 -0.0 -0.0 0.0 0.0 0.0 
3061.6166674 687.232 -1797.60176002 -3.71156889501 9.76501743473 -0.893655091472 -0.799948 0.501412 2.24967 -0.797203 0.357281 2.277 -0.780715 -0.160602 2.29925 -0.788035 0.204438 2.29576 4.57787 10.13 1.97245 4.84294 15.7395 2.75338 -0.0 0.0 -0.0 2.6757 5.0653 5.50195 -0.273138 19.1219 67.2909 0.30506 -8.59358 0.0229205 21.7552 0.24684 -2.75141 2.54106 13.2647 22.0005 -0.0 0.0 -0.0 12.5634 23.2679 -24.9597 -12.8434 17.6226 -54.764 1.44923 35.6726 -0.466332 18.8043 -0.274944 2.37558 1.11642 23.3021 2.56031 0.0 0.0 0.0 30.782 20.2867 -8.86156 -21.8918 0.268366 3.32835 1.4986 -2.96254 -0.222832 -5.59736 0.0 0.0 -0.0 0.0 -0.0 -11.6122 10.7301 13.5801 -20.2715 -0.292312 -3.08088 31.7666 -26.6867 4.35442 15.0356 -0.0 -0.0 0.0 0.0 0.0 
3061.80095273 687.232 -1797.76726679 -3.71065674896 9.68295295355 -0.899055535555 -0.799948 0.501412 2.24967 -0.797203 0.357281 2.277 -0.780715 -0.160602 2.29925 -0.788035 0.204438 2.29576 4.57787 10.13 1.97245 4.84294 15.7395 2.75338 -0.0 0.0 -0.0 2.6757 5.0653 5.50195 -0.273138 19.1219 67.2909 0.30506 -8.59358 0.0229205 21.7552 0.24684 -2.75141 2.54106 13.2647 22.0005 -0.0 0.0 -0.0 12.5634 23.2679 -24.9597 -12.8434 17.6226 -54.764 1.44923 35.6726 -0.466332 18.8043 -0.274944 2.37558 1.11642 23.3021 2.56031 0.0 0.0 0.0 30.782 20.2867 -8.86156 -21.8918 0.268366 3.32835 1.4986 -2.96254 -0.222832 -5.59736 0.0 0.0 -0.0 0.0 -0.0 -11.6122 10.7301 13.5801 -20.2715 -0.292312 -3.08088 31.7666 -26.6867 4.35442 15.0356 -0.0 -0.0 0.0 0.0 0.0 
3061.66358368 687.232 -1797.64394092 -3.71133579845 9.7441150119 -0.895030876369 -0.799948 0.501412 2.24967 -0.797203 0.357281 2.277 -0.780715 -0.160602 2.29925 -0.788035 0.204438 2.29576 4.57787 10.13 1.97245 4.84294 15.7395 2.75338 -0.0 0.0 -0.0 2.6757 5.0653 5.50195 -0.273138 19.1219 67.2909 0.30506 -8.59358 0.0229205 21.7552 0.24684 -2.75141 2.54106 13.2647 22.0005 -0.0 0.0 -0.0 12.5634 23.2679 -24.9597 -12.8434 17.6226 -54.764 1.44923 35.6726 -0.466332 18.8043 -0.274944 2.37558 1.11642 23.3021 2.56031 0.0 0.0 0.0 30.782 20.2867 -8.86156 -21.8918 0.268366 3.32835 1.4986 -2.96254 -0.222832 -5.59736 0.0 0.0 -0.0 0.0 -0.0 -11.6122 10.7301 13.5801 -20.2715 -0.292312 -3.08088 31.7666 -26.6867 4.35442 15.0356 -0.0 -0.0 0.0 0.0 0.0 
3048.37488883 694.516 -1810.7899226 -3.51901818637 8.75547667426 -1.32563217866 -0.971964 0.586764 2.44445 -0.968742 0.430077 2.47681 -0.947231 -0.141557 2.50986 -0.95593 0.256479 2.50074 4.7822 9.98954 1.59695 5.0561 15.7907 2.30188 -0.0 0.0 -0.0 3.34793 4.89979 6.72855 0.705456 19.3758 65.1052 0.329752 -9.27749 0.0267557 21.3026 0.252407 -2.69387 2.64971 11.9452 22.3278 -0.0 0.0 -0.0 12.5435 23.0222 -24.9371 -11.2695 15.7357 -57.1143 1.29741 32.7272 -0.380968 15.3597 -0.283227 1.93576 1.67992 26.4308 0.335107 0.0 0.0 0.0 29.3969 20.9789 -8.22583 -22.6644 0.254485 3.44609 0.190276 -2.03662 -0.0283016 -4.27415 0.0 0.0 -0.0 0.0 -0.0 -10.3203 13.3999 14.0141 -23.2318 -0.243281 -3.53244 28.6757 -24.521 3.94183 11.3965 -0.0 -0.0 0.0 0.0 0.0 
3022.59692284 698.669 -1822.2720481 -3.09340004508 9.39586082408 -1.85485250529 -0.953669 0.56738 2.32993 -0.950746 0.418013 2.36128 -0.930871 -0.126479 2.39464 -0.938784 0.253187 2.38458 4.22971 9.39539 0.647429 4.49836 15.6701 1.23974 -0.0 0.0 -0.0 4.20367 4.62474 8.29945 0.135108 19.5989 65.2136 0.295455 -8.32686 0.0215073 21.7351 0.247097 -2.74886 2.52023 11.9937 21.451 -0.0 0.0 -0.0 11.9172 23.1903 -23.482 -13.7288 16.2335 -57.6184 1.28862 32.5504 -0.376228 17.4919 -0.281218 2.20808 1.32894 26.3715 2.56352 0.0 0.0 0.0 27.4393 22.4846 -6.58591 -24.1831 0.222576 3.67695 -0.285545 -2.08499 0.0425291 -3.0954 0.0 0.0 -0.0 0.0 -0.0 -9.04253 12.9066 15.0198 -25.6557 -0.185802 -3.89994 27.4766 -23.794 3.78443 10.6829 -0.0 -0.0 0.0 0.0 0.0 
3007.0266414 705.561 -1838.34757826 -3.13221487604 9.47672596177 -1.14007893222 -0.705436 0.645674 2.0371 -0.703275 0.514768 2.07403 -0.682631 0.0420477 2.13652 -0.688801 0.378868 2.10309 3.39643 9.0659 0.236052 3.64869 15.5623 0.836003 -0.0 0.0 -0.0 5.0709 -1.4581 9.74942 10.0515 19.6598 60.1271 0.244827 -6.91524 0.0147925 21.0073 0.255794 -2.6563 2.46642 15.7019 22.2427 -0.0 0.0 -0.0 11.833 21.2909 -23.4539 -15.3241 14.1227 -58.4006 1.22134 31.1734 -0.340711 14.8918 -0.282312 1.87601 1.51854 25.9614 1.1556 0.0 0.0 0.0 25.319 23.8987 -6.74609 -25.1158 0.199948 3.8183 -1.6044 -0.851718 0.238814 -2.63461 0.0 0.0 -0.0 0.0 -0.0 -7.08552 21.2772 11.6855 -30.9831 -0.00515786 -4.69729 26.5802 -25.8189 3.72016 9.95978 -0.0 -0.0 0.0 0.0 0.0 
